<svg width="559" height="62" viewBox="0 0 559 62" fill="none" xmlns="http://www.w3.org/2000/svg">
<path d="M81 0C63.9068 0 50 13.9068 50 31C50 48.0932 63.9068 62 81 62C98.0932 62 112 48.0945 112 31C112 13.9055 98.0932 0 81 0ZM94.1213 44.9338C93.732 45.5185 93.0907 45.8338 92.4372 45.8338C92.0519 45.8338 91.6625 45.7246 91.3176 45.4942C87.9857 43.2725 82.3352 41.7905 77.6196 41.7919C72.6158 41.7946 68.8649 43.0233 68.8272 43.0354C67.7709 43.3938 66.6243 42.8172 66.2713 41.7582C65.9183 40.6992 66.4909 39.554 67.5499 39.2024C67.7278 39.1431 71.9677 37.754 77.6196 37.7513C82.3352 37.7486 88.8938 39.0205 93.5609 42.1314C94.4905 42.7511 94.7411 44.0055 94.1213 44.9338ZM98.1525 36.6614C97.7146 37.3646 96.9588 37.7513 96.1867 37.7513C95.7691 37.7513 95.346 37.6395 94.9661 37.401C88.9248 33.6367 82.7165 32.8404 77.3677 32.8876C71.3291 32.9415 66.5004 34.0934 66.4182 34.1176C65.1962 34.4653 63.9109 33.7512 63.5619 32.5238C63.213 31.2937 63.9284 30.0151 65.1571 29.6675C65.5303 29.5611 70.3496 28.3755 76.9473 28.3202C82.963 28.2704 90.4594 29.1421 97.4141 33.475C98.496 34.1486 98.8288 35.5768 98.1525 36.6614ZM102.174 26.9877C101.672 27.8419 100.772 28.3175 99.8474 28.3175C99.3839 28.3175 98.915 28.1976 98.4852 27.947C91.4443 23.8135 82.8835 22.9364 76.9419 22.9283C76.9136 22.9283 76.8853 22.9283 76.8571 22.9283C69.6719 22.9283 64.1386 24.1921 64.0833 24.2056C62.6309 24.5384 61.1853 23.6411 60.8485 22.1914C60.5116 20.743 61.4103 19.296 62.8586 18.9578C63.1079 18.8999 69.0198 17.5391 76.8571 17.5391C76.888 17.5391 76.919 17.5391 76.95 17.5391C83.5585 17.5486 93.1324 18.5537 101.215 23.2988C102.498 24.0533 102.927 25.7051 102.174 26.9877Z" fill="#1DB954"/>
<path d="M24.2739 61.9599C20.5406 61.9599 17.0739 61.2666 13.8739 59.8799C10.6739 58.4399 7.95391 56.4933 5.71391 54.0399C3.47391 51.5866 1.82057 48.7599 0.753906 45.5599L8.75391 42.1999C10.1939 45.8799 12.3006 48.7066 15.0739 50.6799C17.8472 52.6533 21.0472 53.6399 24.6739 53.6399C26.8072 53.6399 28.6739 53.3199 30.2739 52.6799C31.8739 51.9866 33.1006 51.0266 33.9539 49.7999C34.8606 48.5733 35.3139 47.1599 35.3139 45.5599C35.3139 43.3733 34.7006 41.6399 33.4739 40.3599C32.2472 39.0799 30.4339 38.0666 28.0339 37.3199L16.8339 33.7999C12.3539 32.4133 8.94057 30.3066 6.59391 27.4799C4.24724 24.5999 3.07391 21.2399 3.07391 17.3999C3.07391 14.0399 3.90057 11.1066 5.55391 8.59994C7.20724 6.03994 9.47391 4.03994 12.3539 2.59994C15.2872 1.15994 18.6206 0.439941 22.3539 0.439941C25.9272 0.439941 29.1806 1.07994 32.1139 2.35994C35.0472 3.58661 37.5539 5.29327 39.6339 7.47994C41.7672 9.66661 43.3139 12.1999 44.2739 15.0799L36.4339 18.5199C35.2606 15.3733 33.4206 12.9466 30.9139 11.2399C28.4606 9.53327 25.6072 8.67994 22.3539 8.67994C20.3806 8.67994 18.6472 9.02661 17.1539 9.71994C15.6606 10.3599 14.4872 11.3199 13.6339 12.5999C12.8339 13.8266 12.4339 15.2666 12.4339 16.9199C12.4339 18.8399 13.0472 20.5466 14.2739 22.0399C15.5006 23.5333 17.3672 24.6533 19.8739 25.3999L30.2739 28.6799C35.0206 30.1199 38.5939 32.1999 40.9939 34.9199C43.3939 37.5866 44.5939 40.9199 44.5939 44.9199C44.5939 48.2266 43.7139 51.1599 41.9539 53.7199C40.2472 56.2799 37.8739 58.3066 34.8339 59.7999C31.7939 61.2399 28.2739 61.9599 24.2739 61.9599Z" fill="#1DB954"/>
<path d="M138.945 61.9599C134.518 61.9599 130.572 61.0266 127.105 59.1599C123.692 57.2933 120.998 54.7333 119.025 51.4799C117.105 48.2266 116.145 44.5199 116.145 40.3599V1.39994H125.585V39.9599C125.585 42.5733 126.145 44.8933 127.265 46.9199C128.438 48.9466 130.012 50.5199 131.985 51.6399C134.012 52.7599 136.332 53.3199 138.945 53.3199C141.612 53.3199 143.932 52.7599 145.905 51.6399C147.932 50.5199 149.505 48.9466 150.625 46.9199C151.798 44.8933 152.385 42.5733 152.385 39.9599V1.39994H161.745V40.3599C161.745 44.5199 160.785 48.2266 158.865 51.4799C156.945 54.7333 154.252 57.2933 150.785 59.1599C147.372 61.0266 143.425 61.9599 138.945 61.9599Z" fill="#1DB954"/>
<path d="M169.178 60.9999V1.39994H176.778L210.218 47.5599L206.618 48.1199V1.39994H215.978V60.9999H208.378L175.178 14.5199L178.618 13.8799V60.9999H169.178Z" fill="#1DB954"/>
<path d="M223.919 60.9999V1.39994H243.439C249.626 1.39994 254.986 2.65327 259.519 5.15994C264.106 7.61328 267.652 11.0799 270.159 15.5599C272.666 20.0399 273.919 25.2399 273.919 31.1599C273.919 37.0266 272.666 42.2266 270.159 46.7599C267.652 51.2399 264.106 54.7333 259.519 57.2399C254.986 59.7466 249.626 60.9999 243.439 60.9999H223.919ZM233.359 52.5999H243.599C247.812 52.5999 251.466 51.7199 254.559 49.9599C257.706 48.1999 260.132 45.7199 261.839 42.5199C263.546 39.3199 264.399 35.5333 264.399 31.1599C264.399 26.7866 263.519 23.0266 261.759 19.8799C260.052 16.6799 257.652 14.1999 254.559 12.4399C251.466 10.6799 247.812 9.79994 243.599 9.79994H233.359V52.5999Z" fill="#1DB954"/>
<path d="M286.954 60.9999V9.79994H271.114V1.39994H311.914V9.79994H296.314V60.9999H286.954Z" fill="#1DB954"/>
<path d="M314.572 60.9999V1.39994H336.252C340.252 1.39994 343.772 2.14661 346.812 3.63994C349.852 5.07994 352.225 7.21327 353.932 10.0399C355.692 12.8133 356.572 16.1466 356.572 20.0399C356.572 24.1466 355.532 27.6666 353.452 30.5999C351.425 33.5333 348.679 35.6666 345.212 36.9999L358.972 60.9999H348.252L333.612 34.9999L339.772 38.5999H324.012V60.9999H314.572ZM324.012 30.1999H336.412C338.599 30.1999 340.492 29.7733 342.092 28.9199C343.692 28.0666 344.919 26.8933 345.772 25.3999C346.679 23.8533 347.132 22.0399 347.132 19.9599C347.132 17.8799 346.679 16.0933 345.772 14.5999C344.919 13.0533 343.692 11.8799 342.092 11.0799C340.492 10.2266 338.599 9.79994 336.412 9.79994H324.012V30.1999Z" fill="#1DB954"/>
<path d="M357.236 60.9999L378.196 1.39994H389.876L410.836 60.9999H400.756L396.196 47.6399H371.956L367.316 60.9999H357.236ZM374.676 39.2399H393.316L382.756 8.03994H385.396L374.676 39.2399Z" fill="#1DB954"/>
<path d="M438.845 61.9599C434.631 61.9599 430.711 61.1866 427.085 59.6399C423.511 58.0933 420.391 55.9599 417.725 53.2399C415.111 50.4666 413.058 47.2133 411.565 43.4799C410.071 39.7466 409.325 35.6399 409.325 31.1599C409.325 26.7333 410.045 22.6533 411.485 18.9199C412.978 15.1333 415.058 11.8799 417.725 9.15994C420.391 6.38661 423.511 4.25327 427.085 2.75994C430.658 1.21327 434.578 0.439941 438.845 0.439941C443.058 0.439941 446.818 1.15994 450.125 2.59994C453.485 4.03994 456.311 5.93328 458.605 8.27994C460.898 10.5733 462.551 13.0799 463.565 15.7999L455.085 19.7999C453.805 16.5999 451.751 14.0133 448.925 12.0399C446.151 10.0133 442.791 8.99994 438.845 8.99994C434.898 8.99994 431.405 9.93328 428.365 11.7999C425.325 13.6666 422.951 16.2533 421.245 19.5599C419.591 22.8666 418.765 26.7333 418.765 31.1599C418.765 35.5866 419.591 39.4799 421.245 42.8399C422.951 46.1466 425.325 48.7333 428.365 50.5999C431.405 52.4133 434.898 53.3199 438.845 53.3199C442.791 53.3199 446.151 52.3333 448.925 50.3599C451.751 48.3866 453.805 45.7999 455.085 42.5999L463.565 46.5999C462.551 49.2666 460.898 51.7733 458.605 54.1199C456.311 56.4666 453.485 58.3599 450.125 59.7999C446.818 61.2399 443.058 61.9599 438.845 61.9599Z" fill="#1DB954"/>
<path d="M468.872 60.9999V1.39994H478.312V33.7199L475.832 32.7599L502.792 1.39994H514.552L490.712 29.3199L491.192 22.5999L515.512 60.9999H504.392L486.952 33.7199L478.312 43.7999V60.9999H468.872Z" fill="#1DB954"/>
<path d="M538.243 61.9599C534.509 61.9599 531.043 61.2666 527.843 59.8799C524.643 58.4399 521.923 56.4933 519.683 54.0399C517.443 51.5866 515.789 48.7599 514.723 45.5599L522.723 42.1999C524.163 45.8799 526.269 48.7066 529.043 50.6799C531.816 52.6533 535.016 53.6399 538.643 53.6399C540.776 53.6399 542.643 53.3199 544.243 52.6799C545.843 51.9866 547.069 51.0266 547.923 49.7999C548.829 48.5733 549.283 47.1599 549.283 45.5599C549.283 43.3733 548.669 41.6399 547.443 40.3599C546.216 39.0799 544.403 38.0666 542.003 37.3199L530.803 33.7999C526.323 32.4133 522.909 30.3066 520.563 27.4799C518.216 24.5999 517.043 21.2399 517.043 17.3999C517.043 14.0399 517.869 11.1066 519.523 8.59994C521.176 6.03994 523.443 4.03994 526.323 2.59994C529.256 1.15994 532.589 0.439941 536.323 0.439941C539.896 0.439941 543.149 1.07994 546.083 2.35994C549.016 3.58661 551.523 5.29327 553.603 7.47994C555.736 9.66661 557.283 12.1999 558.243 15.0799L550.403 18.5199C549.229 15.3733 547.389 12.9466 544.883 11.2399C542.429 9.53327 539.576 8.67994 536.323 8.67994C534.349 8.67994 532.616 9.02661 531.123 9.71994C529.629 10.3599 528.456 11.3199 527.603 12.5999C526.803 13.8266 526.403 15.2666 526.403 16.9199C526.403 18.8399 527.016 20.5466 528.243 22.0399C529.469 23.5333 531.336 24.6533 533.843 25.3999L544.243 28.6799C548.989 30.1199 552.563 32.1999 554.963 34.9199C557.363 37.5866 558.563 40.9199 558.563 44.9199C558.563 48.2266 557.683 51.1599 555.923 53.7199C554.216 56.2799 551.843 58.3066 548.803 59.7999C545.763 61.2399 542.243 61.9599 538.243 61.9599Z" fill="#1DB954"/>
</svg>
